<?xml version="1.0" encoding="utf-8"?>
<!DOCTYPE svg PUBLIC "-//W3C//DTD SVG 1.1//EN" "http://www.w3.org/Graphics/SVG/1.1/DTD/svg11.dtd">
<svg version="1.1" xmlns="http://www.w3.org/2000/svg" xmlns:xlink="http://www.w3.org/1999/xlink"
	 viewBox="0 0 1280 800" xml:space="preserve" fill="rgba(0,0,0,0.2)">
<path d="M907.57,0.055H372.432c-45.129,0-81.872,36.74-81.872,82.269v539.934c0,45.528,36.74,82.269,81.87,82.269h452.874
	l-21.168-73.882l51.119,47.524l48.321,44.728l85.863,75.878V82.323C989.44,36.795,952.7,0.055,907.57,0.055z M753.418,521.621
	c0,0-14.376-17.175-26.357-32.351c52.317-14.777,72.284-47.524,72.284-47.524c-16.374,10.784-31.948,18.373-45.927,23.561
	c-19.967,8.39-39.137,13.978-57.906,17.174c-38.34,7.188-73.483,5.193-103.434-0.398c-22.766-4.395-42.334-10.783-58.706-17.171
	c-9.187-3.596-19.17-7.988-29.156-13.579c-1.195-0.801-2.394-1.199-3.593-1.999c-0.797-0.398-1.198-0.797-1.597-1.195
	c-7.188-3.994-11.182-6.79-11.182-6.79s19.17,31.949,69.888,47.123c-11.979,15.179-26.757,33.147-26.757,33.147
	c-88.261-2.795-121.805-60.701-121.805-60.701c0-128.594,57.507-232.828,57.507-232.828c57.508-43.131,112.22-41.933,112.22-41.933
	l3.994,4.794c-71.884,20.762-105.031,52.314-105.031,52.314s8.785-4.791,23.56-11.58c42.732-18.771,76.681-23.962,90.658-25.16
	c2.395-0.401,4.393-0.8,6.789-0.8c26.763-3.486,53.847-3.754,80.672-0.797c37.937,4.393,78.674,15.574,120.205,38.337
	c0,0-31.548-29.95-99.44-50.718l5.591-6.388c0,0,54.713-1.201,112.221,41.933c0,0,57.51,104.231,57.51,232.825
	c0,0-33.947,57.906-122.206,60.701L753.418,521.621L753.418,521.621z M567.716,335.118c-22.763,0-40.731,19.967-40.731,44.327
	c0,24.362,18.367,44.329,40.731,44.329c22.766,0,40.734-19.967,40.734-44.329c0.401-24.36-17.969-44.327-40.731-44.327
	 M713.483,335.118c-22.765,0-40.736,19.967-40.736,44.327c0,24.362,18.372,44.329,40.736,44.329
	c22.763,0,40.731-19.967,40.731-44.329C754.216,355.086,736.246,335.118,713.483,335.118"/>
</svg>
