<?xml version="1.0" encoding="utf-8"?>
<!DOCTYPE svg PUBLIC "-//W3C//DTD SVG 1.1//EN" "http://www.w3.org/Graphics/SVG/1.1/DTD/svg11.dtd">
<svg version="1.1" xmlns="http://www.w3.org/2000/svg" xmlns:xlink="http://www.w3.org/1999/xlink" 
	viewBox="237.5 0 803 800" 	xml:space="preserve">
	<g>
		<path d="M639.64,43.08c48.061,0,94.662,9.404,138.509,27.949c42.372,17.921,80.434,43.585,113.128,76.279
			c32.693,32.694,58.358,70.756,76.28,113.128c18.546,43.846,27.948,90.447,27.948,138.508s-9.402,94.661-27.948,138.509
			c-17.922,42.372-43.587,80.434-76.28,113.128c-32.694,32.694-70.756,58.358-113.128,76.28
			c-43.847,18.545-90.448,27.949-138.509,27.949c-48.062,0-94.662-9.404-138.509-27.95c-42.371-17.922-80.433-43.586-113.127-76.28
			s-58.359-70.756-76.279-113.128c-18.547-43.846-27.95-90.448-27.95-138.509s9.403-94.662,27.95-138.508
			c17.92-42.372,43.585-80.433,76.279-113.128c32.694-32.694,70.756-58.358,113.127-76.279
			C544.979,52.485,591.581,43.08,639.64,43.08 M639.64,3.354c-218.483,0-395.592,177.107-395.592,395.592
			c0,218.485,177.108,395.592,395.592,395.592c218.484,0,395.593-177.107,395.593-395.592
			C1035.233,180.462,858.126,3.354,639.64,3.354L639.64,3.354z"/>
	</g>
<polygon points="829.904,531.502 640.312,341.894 448.889,533.335 381.286,465.732 640.802,206.214 897.998,463.407 "/>
</svg>
