<?xml version="1.0" encoding="utf-8"?>
<!DOCTYPE svg PUBLIC "-//W3C//DTD SVG 1.1//EN" "http://www.w3.org/Graphics/SVG/1.1/DTD/svg11.dtd">
<svg version="1.1" xmlns="http://www.w3.org/2000/svg" xmlns:xlink="http://www.w3.org/1999/xlink" 
	 viewBox="-213.5 -352 1716 1652" xml:space="preserve" fill="rgba(0,0,0,0.2)">
<g>
	<g>
		<g>
			<path d="M641.759-335.244c-446.567,0-808.581,362.014-808.581,808.581c0,446.566,362.014,808.581,808.581,808.581
				c446.567,0,808.581-362.015,808.581-808.581C1450.34,26.769,1088.326-335.244,641.759-335.244z M1057.142,595.821
				l-171.306,125.23c-5.906,65.568-64.978,118.732-129.955,118.732c-64.979,0-118.142-41.35-129.956-103.374L117.917,533.206
				c-20.09,12.405-43.121,18.903-68.528,18.903c-73.247,0-133.618-60.253-133.618-133.5c0-73.839,60.371-134.091,133.618-134.091
				c63.797,0,117.552,44.894,131.138,105.146L684.99,592.868c23.629-11.814,47.257-18.903,70.886-18.903
				c5.906,0,5.906,0.585,11.813,1.182l112.235-160.082c0-98.647,82.698-177.803,177.212-177.803
				c100.42,0,183.119,80.336,183.125,178.984C1240.261,515.485,1157.562,595.821,1057.142,595.821z M1290.6,246.323h-11.813v41.35
				h-11.814v-41.35h-11.814v-8.86h35.441V246.323z M1331.949,287.673v-29.535l-11.813,19.493h-5.908l-5.906-19.493v29.535h-11.814
				v-50.21h11.814l11.814,27.173l11.813-27.173h11.814v50.21H1331.949z"/>
			<path d="M1057.136,296.333L1057.136,296.333c-64.978-0.001-118.142,53.754-118.142,119.913
				c0,66.75,53.164,120.505,118.142,120.505c70.885,0,124.049-53.755,124.049-120.505
				C1181.185,350.087,1128.021,296.333,1057.136,296.333z M1057.136,511.941c-53.164,0-94.514-43.122-94.514-96.286
				c0-52.572,41.35-95.694,94.514-95.694c53.163,0,100.42,43.122,100.42,95.694C1157.556,468.819,1110.3,511.941,1057.136,511.941z"
				/>
		</g>
	</g>
</g>
<g>
	<g>
		<path d="M87.785,352.45l49.034,19.493c-16.545-31.308-49.625-51.982-87.431-51.982c-54.345,0-98.057,43.712-98.063,98.648
			c0,54.345,43.718,98.058,98.057,98.058c7.686,0,14.769-0.591,21.271-2.363l-41.35-16.54
			c-38.396-17.13-56.117-61.434-40.759-101.011C4.495,357.766,48.208,338.272,87.785,352.45z"/>
	</g>
</g>
<g>
	<g>
		<path d="M755.876,609.408L755.876,609.408c-5.907-0.001-17.722,1.181-23.629,2.368l41.35,16.54
			c41.35,15.949,53.164,66.159,41.35,102.777c-17.721,37.806-59.07,61.434-100.42,43.712c-17.722-5.906-29.536-11.813-47.257-20.674
			c17.721,32.488,47.257,50.21,88.606,50.21c53.163,0,94.513-41.35,94.513-96.286C850.388,653.711,809.039,609.408,755.876,609.408z
			"/>
	</g>
</g>
</svg>
