<?xml version="1.0" encoding="utf-8"?>
<!DOCTYPE svg PUBLIC "-//W3C//DTD SVG 1.1//EN" "http://www.w3.org/Graphics/SVG/1.1/DTD/svg11.dtd">
<svg version="1.1" xmlns="http://www.w3.org/2000/svg" xmlns:xlink="http://www.w3.org/1999/xlink"  
viewBox="0 0 331 372" xml:space="preserve" fill="rgba(0,0,0,0.2)">
<g>
	<g>
		<path d="M187.079,17.163l-7.337,36.038h-39.373l-48.05,243.135l-68.516-0.893L71.41,53.873H32.705l6.676-36.71H187.079
			 M207.889,0.163h-20.81H39.381H25.193l-2.538,13.958l-6.676,36.71l-3.645,20.042h20.37h18.028L7.124,292.156l-3.945,20.02
			l20.403,0.266l68.515,0.894l14.155,0.184l2.744-13.887l45.342-229.431h25.404h13.888l2.771-13.608l7.337-36.039L207.889,0.163
			L207.889,0.163z"/>
	</g>
</g>
<g>
	<g>
		<path d="M242.475,70.62c0.422,0,0.839,0.001,1.262,0.005c38.758,0.301,72.961,10.083,65.852,50.121
			c-2.11,11.803-9.355,50.723-9.355,50.723l-63.022,0.152c0,0,9.974-53.273,10.523-57.247c0.476-3.38-4.598-5.844-9.842-5.844
			c-4.646,0-9.428,1.933-10.609,6.876c-0.942,3.94-31.97,161.583-31.97,161.583c-2.626,12.422-6.758,29.803-6.149,33.743
			c0.599,3.923,2.673,5.028,6.964,5.028c1.355,0,2.66,0.074,3.893,0.074c3.051,0,5.66-0.455,7.526-3.617
			c2.63-4.466,11.866-55.331,11.866-55.331l-13.646-0.143l8.3-42.565h77.862l-27.874,137.775l-34.258,0.437l-5.779-15.27
			c-7.5,6.021-25.634,17.728-47.669,17.728c-0.202,0-0.403-0.001-0.606-0.003c-10.867-0.106-64.59-0.073-56.504-44.263
			c1.018-5.613,36.005-183.893,38.786-193.688C167.407,83.751,204.646,70.622,242.475,70.62 M242.475,53.62L242.475,53.62
			c-22.822,0.001-43.691,4.3-60.351,12.433c-20.78,10.145-34.771,26.125-40.457,46.212c-3.22,11.345-38.868,193.7-39.156,195.287
			c-3.785,20.682,2.994,34.201,9.348,41.896c8.098,9.805,20.419,16.485,36.623,19.854c11.546,2.4,22.167,2.499,26.702,2.54
			l0.392,0.004c0.259,0.003,0.515,0.004,0.773,0.004c15.267,0,28.754-4.464,39.059-9.451l2.704,7.144l11.902-0.151l34.258-0.437
			l13.724-0.175l2.722-13.453l27.874-137.775l4.122-20.371h-20.784h-63.56c0.569-2.882,1.132-5.729,1.687-8.541l7.195-0.018
			l63.022-0.152l14.093-0.033l2.579-13.855c0.296-1.591,7.28-39.114,9.377-50.842c3.291-18.535-0.1-34.006-10.075-46.003
			c-13.261-15.948-36.936-23.834-72.379-24.11C243.4,53.622,242.94,53.62,242.475,53.62L242.475,53.62z"/>
	</g>
</g>
</svg>
