<?xml version="1.0" encoding="utf-8"?>
<!DOCTYPE svg PUBLIC "-//W3C//DTD SVG 1.1//EN" "http://www.w3.org/Graphics/SVG/1.1/DTD/svg11.dtd">
<svg version="1.1" xmlns="http://www.w3.org/2000/svg" xmlns:xlink="http://www.w3.org/1999/xlink"
	 viewBox="0 0 1280 800" xml:space="preserve" fill="rgba(0,0,0,0.2)">
<path d="M686.407,36.909l-15.778,77.501h-84.674L482.622,637.281l-147.347-1.92l102.381-519.506H354.42l14.356-78.946H686.407
	 M731.16,0.351h-44.753H368.776h-30.512l-5.458,30.017l-14.356,78.946l-7.839,43.102h43.806h38.771l-93.781,475.877l-8.483,43.054
	l43.877,0.572l147.345,1.923l30.441,0.396l5.9-29.865l97.51-493.399h54.633h29.866l5.959-29.265l15.778-77.503L731.16,0.351
	L731.16,0.351z M805.538,151.871c0.907,0,1.805,0.002,2.714,0.011c83.351,0.646,156.905,21.684,141.617,107.787
	c-4.537,25.383-20.118,109.081-20.118,109.081l-135.531,0.327c0,0,21.449-114.565,22.63-123.112
	c1.023-7.269-9.888-12.567-21.165-12.567c-9.991,0-20.275,4.157-22.815,14.787c-2.025,8.474-68.753,347.49-68.753,347.49
	c-5.647,26.714-14.533,64.093-13.224,72.565c1.288,8.437,5.749,10.813,14.977,10.813c2.914,0,5.721,0.159,8.372,0.159
	c6.562,0,12.172-0.979,16.185-7.779c5.656-9.604,25.519-118.991,25.519-118.991l-29.346-0.308l17.849-91.537h167.445l-59.943,296.29
	l-73.674,0.939l-12.428-32.838c-16.129,12.948-55.127,38.124-102.514,38.124c-0.435,0-0.867-0.002-1.304-0.006
	c-23.369-0.229-138.903-0.157-121.514-95.189c2.189-12.071,77.431-395.469,83.411-416.533
	C644.101,180.11,724.185,151.875,805.538,151.871 M805.538,115.312L805.538,115.312c-49.079,0.002-93.959,9.247-129.787,26.737
	c-44.688,21.817-74.776,56.184-87.004,99.381c-6.925,24.398-83.587,416.559-84.207,419.972c-8.14,44.478,6.438,73.551,20.104,90.1
	c17.415,21.086,43.912,35.451,78.759,42.696c24.83,5.161,47.671,5.374,57.424,5.463l0.843,0.008
	c0.558,0.007,1.108,0.009,1.663,0.009c32.832,0,61.836-9.6,83.997-20.324l5.815,15.363l25.596-0.325l73.673-0.939l29.515-0.376
	l5.854-28.932l59.943-296.29l8.865-43.809h-44.697H775.205c1.224-6.198,2.434-12.32,3.628-18.368l15.473-0.038l135.531-0.327
	l30.308-0.071l5.546-29.796c0.637-3.421,15.656-84.115,20.166-109.337c7.077-39.86-0.215-73.131-21.667-98.932
	c-28.518-34.297-79.432-51.256-155.653-51.849C807.527,115.316,806.538,115.312,805.538,115.312L805.538,115.312z"/>
</svg>
