<?xml version="1.0" encoding="utf-8"?>
<!DOCTYPE svg PUBLIC "-//W3C//DTD SVG 1.1//EN" "http://www.w3.org/Graphics/SVG/1.1/DTD/svg11.dtd">
<svg version="1.1" xmlns="http://www.w3.org/2000/svg" xmlns:xlink="http://www.w3.org/1999/xlink"
	 viewBox="267.629 492.5 1511.924 1064" xml:space="preserve">
	<g>
		<g>
			<path d="M1775.931,1021.167c0.002-114.85,0.002-236.491-25.783-348.697c-9.75-42.333-31.94-79.151-62.128-106.557v-0.001
				c-30.376-27.573-68.846-45.657-110.919-50.307c-91.447-10.235-183.723-15.387-276.305-17.97
				c-91.988-2.565-184.37-2.565-276.547-2.513c-92.164-0.053-184.54-0.053-276.54,2.513c-92.593,2.583-184.896,7.734-276.396,17.97
				c-42.033,4.651-80.486,22.744-110.834,50.33c-30.154,27.408-52.31,64.219-62.002,106.532
				c-13.084,56.721-19.703,115.899-23.047,175.445c-3.356,59.798-3.44,118.839-3.44,176.156c0,57.241,0.001,116.205,3.278,176.039
				c3.263,59.519,9.801,118.696,22.893,175.426c9.75,42.332,31.915,79.153,62.067,106.56c30.33,27.571,68.745,45.652,110.767,50.304
				c91.511,10.234,183.814,15.386,276.407,17.968c91.998,2.565,184.375,2.565,276.552,2.513
				c92.219,0.053,184.593,0.053,276.579-2.513c92.579-2.582,184.856-7.733,276.356-17.968c42.013-4.651,80.42-22.727,110.763-50.289
				c30.167-27.405,52.364-64.229,62.178-106.574c13.033-56.731,19.573-115.909,22.848-175.426
				c3.229-58.692,3.257-118.234,3.253-176.039h0.063v-2.902H1775.931z M1309.298,1024.073l-233.934,121.313
				c-77.865,40.369-155.733,80.728-233.936,121.236l-23.313,12.075V739.358l23.375,12.204
				c70.805,36.968,141.403,73.807,212.066,110.68c85.008,44.358,170.117,88.77,255.803,133.519l27.168,14.188L1309.298,1024.073z"/>
		</g>
	</g>
</svg>
