<?xml version="1.0" encoding="utf-8"?>
<?xml-stylesheet type="text/css" href="../css/creative.min.css" ?>
<!-- Generator: Adobe Illustrator 16.0.3, SVG Export Plug-In . SVG Version: 6.00 Build 0)  -->
<!DOCTYPE svg PUBLIC "-//W3C//DTD SVG 1.1//EN" "http://www.w3.org/Graphics/SVG/1.1/DTD/svg11.dtd">
<svg version="1.1" id="svg-logo-1" xmlns="http://www.w3.org/2000/svg" xmlns:xlink="http://www.w3.org/1999/xlink"
	 viewBox="0 0 2184 2500" xml:space="preserve" class="svg-logo">
<path d="M1928.156,0.172H255.852C114.822,0.172,0,114.986,0,257.261v1687.293c0,142.276,114.813,257.09,255.844,257.09h1415.232
	l-66.151-230.882l159.748,148.513l151.003,139.776L2184,2496.168V257.261C2184,114.986,2069.187,0.172,1928.156,0.172z
	 M1446.431,1630.067c0,0-44.926-53.67-82.369-101.095c163.492-46.18,225.89-148.513,225.89-148.513
	c-51.17,33.699-99.841,57.416-143.521,73.625c-62.398,26.217-122.305,43.68-180.957,53.67
	c-119.813,22.463-229.636,16.227-323.231-1.245c-71.143-13.735-132.294-33.698-183.456-53.661
	c-28.708-11.236-59.906-24.963-91.114-42.435c-3.736-2.5-7.481-3.745-11.227-6.245c-2.491-1.246-3.745-2.491-4.991-3.736
	c-22.463-12.481-34.943-21.218-34.943-21.218s59.906,99.841,218.399,147.258c-37.435,47.434-83.614,103.587-83.614,103.587
	c-275.815-8.736-380.64-189.692-380.64-189.692c0-401.856,179.711-727.588,179.711-727.588
	c179.711-134.785,350.686-131.04,350.686-131.04l12.481,14.98C688.898,661.6,585.312,760.203,585.312,760.203
	s27.453-14.972,73.625-36.189c133.539-58.661,239.625-74.879,283.306-78.624c7.481-1.254,13.727-2.499,21.217-2.499
	c83.632-10.896,168.268-11.731,252.099-2.491c118.55,13.727,245.854,48.671,375.64,119.804c0,0-98.587-93.596-310.751-158.493
	l17.472-19.963c0,0,170.976-3.754,350.687,131.04c0,0,179.719,325.723,179.719,727.579c0,0-106.086,180.956-381.893,189.692
	V1630.067z M866.11,1047.246c-71.134,0-127.286,62.397-127.286,138.521c0,76.133,57.397,138.531,127.286,138.531
	c71.142,0,127.294-62.398,127.294-138.531c1.255-76.124-56.152-138.521-127.286-138.521 M1321.635,1047.246
	c-71.142,0-127.303,62.397-127.303,138.521c0,76.133,57.415,138.531,127.303,138.531c71.134,0,127.286-62.398,127.286-138.531
	C1448.922,1109.644,1392.769,1047.246,1321.635,1047.246"/>
</svg>