<?xml version="1.0" encoding="utf-8"?>
<?xml-stylesheet type="text/css" href="../css/creative.min.css" ?>
<!-- Generator: Adobe Illustrator 16.0.3, SVG Export Plug-In . SVG Version: 6.00 Build 0)  -->
<!DOCTYPE svg PUBLIC "-//W3C//DTD SVG 1.1//EN" "http://www.w3.org/Graphics/SVG/1.1/DTD/svg11.dtd">
<svg version="1.1" id="svg-logo-3" xmlns="http://www.w3.org/2000/svg" xmlns:xlink="http://www.w3.org/1999/xlink"
	 viewBox="0 0 2500 2449" xml:space="preserve" class="svg-logo">
<g>
	<path d="M914.849,1.703C809.002,6.818,697.254,20.195,611.867,38.297C554.024,50.889,416,99,408.042,106.37
		c-15.792,10.38-51.151,37.38-61.775,55.875c-9.445,16.13-33.845,125.518-102.702,456.831
		c-26.359,127.095-21.244,112.539-40.919,122.77c-44.463,23.607-59.023,33.445-85.779,58.232
		C62.957,850.053,31.48,901.597,11.018,973.608C1.18,1008.625,0,1018.858,0,1071.582c0,49.187,1.572,64.532,9.049,92.077
		c18.101,66.893,49.976,121.191,97.583,167.623c33.845,32.658,59.419,48.793,108.996,68.859
		c57.447,22.822,72.403,25.576,142.442,25.576c53.512-0.392,67.68-1.571,94.041-9.051
		c130.243-37.38,224.284-131.816,258.519-260.486c12.984-47.218,12.984-128.669,0-177.067c-4.723-18.494-9.05-35.412-9.441-37.381
		c-0.396-2.358-7.477-16.526-15.347-31.871c-21.25-41.711-50.364-79.482-80.272-103.882c-14.557-11.804-31.479-25.967-37.772-31.477
		l-11.018-9.838l-2.755-332.887l-2.36-332.889c0,0,60.596-14.952,68.073-17.312c36.595-11.017,312.82-29.907,369.875-25.576
		C1071.064,62.695,1123,68.2,1176.516,75.677c27.543,3.539,114.895,24.001,175.1,40.528
		c64.529,17.708,198.711,66.892,235.695,86.565c9.443,5.115,18.887,9.051,20.854,9.051c8.655,0,127.882,63.745,133,71.223
		c1.18,1.571,6.688,4.718,12.588,7.082c24.006,9.05,140.476,90.894,188.09,132.209c33.837,29.51,129.061,127.489,151.094,156.213
		c29.12,37.772,72.796,101.913,87.746,129.062c14.561,25.974,34.235,64.137,34.631,66.895c0,1.179,4.327,9.444,9.051,18.494
		c20.853,40.135,59.021,159.358,70.037,219.563c19.282,106.239,23.218,255.765,9.445,354.136
		c-4.331,30.298-6.783,59.905-7.869,66.104c-1.144,6.531-8.266,36.201-18.102,66.893c-22.035,69.646-29.979,92.52-54.375,145.641
		c-6.691,14.559-67.667,137.666-108.525,175.838c-1.575,1.181-9.054,10.623-16.924,21.248
		c-47.608,62.957-143.227,152.671-229.006,214.841c-14.955,10.624-36.199,26.362-47.216,34.232
		c-44.468,32.659-186.515,106.638-257.733,134.573c-11.805,4.723-25.184,10.229-29.511,12.196
		c-44.069,20.069-170.381,62.956-185.333,62.956c-3.934,0-12.196,1.574-18.888,3.544c-27.541,8.655-103.88,26.364-124.339,29.511
		c-7.478,0.789-40.136,6.294-72.797,11.414c-68.468,11.408-156.212,18.49-226.646,18.49c-69.253,0-207.759-10.23-271.107-20.066
		c-29.119-4.724-61.777-9.838-72.795-11.413c-19.676-3.146-39.742-7.871-72.795-17.311c-9.838-3.147-25.575-7.479-35.412-10.233
		c-16.922-4.719-29.513-9.44-51.94-19.675c-9.052-4.326-12.593-3.937-23.61,1.576c-7.081,3.934-21.25,11.018-31.477,16.526
		c-10.625,5.115-18.888,11.018-18.888,13.377c0,5.117,18.1,14.168,35.412,17.707c7.476,1.575,22.821,7.478,33.446,13.771
		c30.692,16.923,122.769,45.25,196.742,60.6c17.311,3.541,39.348,8.656,49.186,10.625c9.837,2.359,28.333,5.899,41.316,7.475
		c12.982,1.575,36.2,4.721,51.153,7.085c77.119,12.59,115.681,14.555,265.599,14.555c154.64,0,186.907-1.965,275.44-16.13
		c123.157-19.675,271.106-59.021,352.168-94.045c21.643-9.049,46.431-18.886,55.088-21.642
		c51.544-16.13,181.785-83.812,263.634-136.933c29.903-19.673,110.175-78.301,129.454-94.826
		c66.498-57.057,139.687-130.639,185.724-187.301c41.315-50.758,103.485-150.702,136.935-219.954
		c89.711-186.12,120.798-412.373,86.565-624.066c-16.922-105.063-45.252-190.446-96.798-292.751
		c-46.428-92.864-56.662-107.816-159.756-238.453c-57.055-72.006-154.639-159.753-249.861-224.286
		c-22.035-14.95-42.102-28.722-44.068-30.688c-2.365-1.969-12.59-8.658-23.215-14.953c-10.23-6.297-23.609-14.56-29.119-18.102
		c-27.545-17.313-132.603-71.611-168.016-86.958c-17.315-7.479-39.35-16.92-49.187-21.644c-9.838-4.327-25.577-10.625-35.413-13.771
		c-9.837-3.544-27.545-9.839-39.349-14.562c-110.963-42.495-245.535-74.367-377.744-90.105
		C1160.776,1.307,994.725-1.838,914.849,1.703z"/>
	<path d="M855.826,169.326c-88.142,4.326-86.175,2.757-44.07,31.871c42.494,29.511,86.176,68.858,123.947,111.358
		c40.527,45.644,58.235,70.039,65.713,81.056c7.476,11.412,14.951,22.43,16.526,24.788c3.935,4.724,33.052,48.795,45.251,68.468
		c4.718,7.871,12.195,21.246,16.131,29.904c19.676,40.527,52.726,111.354,56.66,120.013c1.967,5.512,6.298,14.95,9.053,21.643
		c2.752,6.298,7.474,18.886,11.018,27.544c3.146,8.656,11.408,29.118,17.708,45.25c22.821,56.662,41.313,142.833,41.313,190.84
		c0,43.283-5.901,58.233-33.054,81.06c-14.952,12.59-19.278,18.49-19.278,27.544c0,14.163,35.019,83.023,57.447,113.716
		c22.429,30.298,68.468,98.368,68.468,101.125c0,1.18,5.507,8.657,11.806,16.919c6.686,8.265,11.805,16.135,11.805,17.313
		s6.687,12.592,14.557,24.788c19.28,29.904,22.036,34.234,35.809,62.958c16.131,33.056,17.706,38.956,14.561,58.631
		c-2.756,20.067-25.973,46.823-49.186,57.448c-31.479,14.163-44.071,18.885-51.154,18.885c-13.379,0-40.923,12.201-49.973,22.43
		c-12.983,13.773-11.805,33.445,5.115,68.073c20.462,42.891,18.494,58.629-11.806,92.074c-7.871,8.658-14.165,17.709-14.165,20.067
		c0,2.361,5.115,9.443,11.807,15.739c10.229,9.835,11.805,14.166,11.805,33.055c0,21.25-0.396,22.032-21.643,41.706l-21.642,20.463
		v29.906c0,29.513,3.54,49.576,14.163,84.991c3.146,9.836,5.511,23.216,5.511,29.901c0,16.527-12.987,53.121-27.543,79.486
		l-11.806,20.853h10.229c12.592,0,86.174-14.162,115.687-22.425c65.315-18.103,165.264-53.517,214.449-75.945
		c107.022-49.186,181.786-89.713,204.609-110.566c6.688-5.901,26.361-21.25,44.463-34.234
		c86.567-61.381,179.034-159.361,239.237-253.404c28.725-44.463,72.795-138.109,84.207-178.248
		c1.572-6.689,6.296-21.641,9.837-33.443c3.54-11.807,7.871-29.514,9.44-39.351c1.969-9.836,5.115-26.755,7.479-37.38
		c12.594-59.414,17.311-194.774,8.262-254.585c-11.016-77.909-26.756-136.144-54.3-201.856
		c-4.722-11.017-37.381-75.55-48.397-95.224c-5.112-8.654-20.854-32.658-35.811-53.12
		c-83.811-115.682-173.915-196.741-319.505-287.244c-86.566-53.901-124.343-70.824-284.883-129.063
		c-100.337-36.2-238.058-66.494-358.463-78.695c-44.464-4.723-84.206-8.656-88.534-9.438
		C920.356,166.57,889.274,167.359,855.826,169.326L855.826,169.326z"/>
	<path d="M643.346,480.966v277.009l36.593,29.513c38.168,31.087,81.056,73.979,107.027,107.028
		c8.658,10.626,16.919,20.461,18.1,21.641c1.18,1.182,12.2,16.138,24.004,33.448c49.577,72.006,85.384,148.344,108.992,232.153
		c13.38,46.43,27.939,148.735,27.939,194.774c-0.396,77.517-25.575,227.827-46.827,279.373
		c-4.325,9.838-16.132,38.956-26.364,64.925c-10.229,25.974-28.327,65.713-40.132,88.534c-11.804,22.824-24.396,46.436-27.543,53.12
		c-13.38,25.973-43.283,69.256-77.125,112.143c-19.674,24.793-40.922,52.729-46.822,61.778l-10.625,16.525l14.953,2.756
		c7.869,1.18,25.184,5.114,38.169,8.261c28.329,7.083,153.458,17.316,181.002,14.952c11.018-1.18,32.265-2.75,47.217-3.935
		c41.315-2.752,78.3-15.739,102.697-36.197c12.201-10.231,28.724-38.564,35.415-59.812c9.835-32.657,7.079-60.598-12.985-120.798
		c-5.115-15.35-9.05-31.873-9.05-36.596c0-13.379,9.05-27.939,31.084-49.581c11.411-11.017,20.068-22.821,20.068-27.544
		c0-4.327-7.869-16.131-17.707-25.575c-9.837-9.44-17.706-20.854-17.706-24.79c0-4.326,11.805-20.063,25.969-35.017
		c23.607-25.184,25.577-28.333,22.821-39.743c-1.181-7.083-4.725-15.35-7.081-18.495c-11.019-14.164-25.971-57.056-25.971-75.551
		c0-28.325,28.327-49.575,92.861-69.642c34.235-10.625,42.104-14.562,54.3-27.939c9.838-10.625,14.169-19.675,14.169-27.543
		c0-14.954-23.219-61.385-44.857-89.716c-8.658-11.804-25.187-35.806-35.808-53.513c-11.021-17.707-30.3-48.005-43.282-67.287
		c-62.172-95.615-80.273-125.915-90.11-151.885c-6.69-17.706-6.69-18.494,1.18-34.232c4.724-9.051,13.381-22.033,19.282-29.12
		c41.708-48.79,45.643-69.25,25.969-139.288c-3.146-11.02-5.506-23.219-5.506-26.759c0-7.868-36.594-120.013-45.25-138.902
		c-3.147-6.686-5.904-12.983-5.904-14.163c0-3.544-26.363-60.599-46.037-99.159c-65.713-130.24-166.053-256.155-248.684-310.063
		c-27.148-18.1-89.321-42.104-108.599-42.104h-9.838v277.012h0.002V480.966z"/>
</g>
</svg>
